# xmcd
#
# Track frame offsets:
# 150
# 13587
# 25942
# 42989
# 56396
# 69086
# 81806
# 95231
# 108045
# 119107
# 136660
# 157017
# 167930
# 181770
# 192987
# 206832
# 217256
# 227026
# 242424
# 261265
# 274770
# 291673
# 304812
# 317165
# 332788
#
# Disc length: 4689 seconds
#
#
# Revision: 2
# Processed by: cddbd v1.5.1PL0 Copyright (c) Steve Scherf et al.
# Submitted via: FreeRIP 2.941 
#
DISCID=76124f19
DTITLE=Sertanejo De Ouro - Só Modão - Sertanejo De Ouro - Só Modão
DYEAR=1900
DGENRE=Country
TTITLE0=Redator and Jornalista - Férias Na Índia
TTITLE1=Abel and Caim - Rio De Lágrimas
TTITLE2=Cássia Moreno - A Mais Bonita Das Noites
TTITLE3=Mensageiro and Mexicano - Ébrio De Amor
TTITLE4=Dartanhã and Delamônica - Os Verdes Campos Da Minha Terra
TTITLE5=Cezar and Paulinho - Soca Pilão
TTITLE6=Itamaracá and José Nilton - Vento No Amanhecer
TTITLE7=Eli Silva and Goiano - Estranho No Ninho
TTITLE8=Cyntia Levy - Mata-Me Depressa
TTITLE9=Tonico and Tinoco - Tristeza Do Jeca
TTITLE10=Onivaldo and Edinaldo  - O Mais Importante É O Verdadeiro Amor
TTITLE11=Barrerito - Andorinha Mensageira
TTITLE12=Odair and Trajano - Aline
TTITLE13=Irídio and Irineu - Meu Coração Não Agüenta
TTITLE14=Joanito and Richard - Se Deus Me Ouvisse
TTITLE15=Almir Sater - Chalana
TTITLE16=Menim and Gaspar - Amante De Rodeio
TTITLE17=Sérgio Reis - O Menino Da Porteira
TTITLE18=Markos Belmonte - Sonhei Com Você
TTITLE19=Canhotinho - Luar Do Sertão
TTITLE20=Inezita Barroso and Boberto Luna - Romaria
TTITLE21=Gilberto and Gilmar - Cabocla Tereza
TTITLE22=As Mineirinhas - A Rival
TTITLE23=João Mineiro and Marciano - Viola Está Chorando
TTITLE24=Milionário and José Rico - Levando A Vida
EXTD=
EXTT0=
EXTT1=
EXTT2=
EXTT3=
EXTT4=
EXTT5=
EXTT6=
EXTT7=
EXTT8=
EXTT9=
EXTT10=
EXTT11=
EXTT12=
EXTT13=
EXTT14=
EXTT15=
EXTT16=
EXTT17=
EXTT18=
EXTT19=
EXTT20=
EXTT21=
EXTT22=
EXTT23=
EXTT24=
PLAYORDER=
